<svg width="907" height="351" viewBox="0 0 907 351" fill="none" xmlns="http://www.w3.org/2000/svg">
<g clip-path="url(#clip0_901_130114)">
<path d="M591.859 32.6793H1123.2V326.793C1123.2 336.82 1115.07 344.948 1105.05 344.948H610.015C599.988 344.948 591.859 336.82 591.859 326.793V32.6793Z" fill="#FAEDE9"/>
<path d="M49.0614 15.0862C51.4248 17.4495 51.4248 21.2815 49.0614 23.6448C46.6981 26.008 42.8663 26.008 40.503 23.6448C38.1396 21.2815 38.1396 17.4495 40.503 15.0862C42.8663 12.723 46.6981 12.723 49.0614 15.0862" stroke="#151B31" stroke-width="2.41" stroke-linecap="round" stroke-linejoin="round"/>
<path d="M73.2683 15.0862C75.6318 17.4495 75.6318 21.2815 73.2683 23.6448C70.9051 26.008 67.0734 26.008 64.71 23.6448C62.3467 21.2815 62.3467 17.4495 64.71 15.0862C67.0734 12.723 70.9051 12.723 73.2683 15.0862" stroke="#151B31" stroke-width="2.41" stroke-linecap="round" stroke-linejoin="round"/>
<path fill-rule="evenodd" clip-rule="evenodd" d="M29.4355 82.3035H499.487C501.706 82.3035 503.504 83.2178 503.504 84.3444V184.352C503.504 185.479 501.706 186.393 499.487 186.393H29.4355C27.2166 186.393 25.418 185.479 25.418 184.352V84.3444C25.418 83.2178 27.2166 82.3035 29.4355 82.3035V82.3035Z" fill="#FAEDE9"/>
<path fill-rule="evenodd" clip-rule="evenodd" d="M29.4754 213.021H221.066C221.97 213.021 222.703 213.935 222.703 215.062V315.069C222.703 316.196 221.97 317.11 221.066 317.11H29.4754C28.571 317.11 27.8379 316.196 27.8379 315.069V215.062C27.8379 213.935 28.571 213.021 29.4754 213.021V213.021Z" fill="#FAEDE9"/>
<path d="M26.0653 15.0862C28.4287 17.4495 28.4287 21.2815 26.0653 23.6448C23.702 26.008 19.8702 26.008 17.5069 23.6448C15.1435 21.2815 15.1435 17.4495 17.5069 15.0862C19.8702 12.723 23.702 12.723 26.0653 15.0862" stroke="#151B31" stroke-width="2.41" stroke-linecap="round" stroke-linejoin="round"/>
<rect x="1.205" y="3.62568" width="530.142" height="346.169" rx="16.9502" stroke="#151B31" stroke-width="2.41"/>
<line x1="1.21094" y1="33.895" x2="532.552" y2="33.895" stroke="#151B31" stroke-width="2.41"/>
<g clip-path="url(#clip1_901_130114)">
<rect x="254.172" y="216.652" width="249.331" height="3.63103" fill="#151B31"/>
<rect x="254.172" y="231.331" width="193.655" height="3.63103" fill="#151B31"/>
<rect x="254.172" y="246.01" width="249.331" height="3.63103" fill="#151B31"/>
<rect x="254.172" y="260.689" width="232.386" height="3.63103" fill="#151B31"/>
<rect x="254.172" y="275.368" width="211.81" height="3.63103" fill="#151B31"/>
</g>
<rect x="78.6719" y="58.0965" width="35.1" height="3.63103" fill="#151B31"/>
<rect x="25.418" y="58.0965" width="35.1" height="3.63103" fill="#151B31"/>
<rect x="133.137" y="58.0965" width="35.1" height="3.63103" fill="#151B31"/>
<rect x="187.604" y="58.0965" width="35.1" height="3.63103" fill="#151B31"/>
<rect x="242.068" y="58.0965" width="35.1" height="3.63103" fill="#151B31"/>
<line x1="24.7676" y1="82.3088" x2="501.733" y2="82.3089" stroke="#151B31" stroke-width="2.41"/>
<rect x="21.793" y="78.6778" width="7.25138" height="7.25138" fill="white" stroke="#151B31" stroke-width="2.41"/>
<rect x="498.168" y="78.6778" width="7.25138" height="7.25138" fill="white" stroke="#151B31" stroke-width="2.41"/>
<line x1="24.7676" y1="186.398" x2="501.733" y2="186.399" stroke="#151B31" stroke-width="2.41"/>
<rect x="21.793" y="182.767" width="7.25138" height="7.25138" fill="white" stroke="#151B31" stroke-width="2.41"/>
<rect x="498.168" y="182.767" width="7.25138" height="7.25138" fill="white" stroke="#151B31" stroke-width="2.41"/>
<line x1="25.205" y1="85.9345" x2="25.205" y2="182.762" stroke="#151B31" stroke-width="2.41"/>
<line x1="502.287" y1="85.9345" x2="502.287" y2="182.762" stroke="#151B31" stroke-width="2.41"/>
<circle cx="491.402" cy="58.0966" r="12.1088" stroke="#151B31" stroke-width="2.41"/>
<path d="M491.402 50.2293C490.505 50.2293 489.627 50.4955 488.881 50.9943C488.134 51.493 487.552 52.2019 487.209 53.0312C486.865 53.8606 486.776 54.7732 486.951 55.6536C487.126 56.534 487.558 57.3428 488.193 57.9775C488.828 58.6123 489.636 59.0446 490.517 59.2197C491.397 59.3948 492.31 59.305 493.139 58.9614C493.969 58.6179 494.677 58.0362 495.176 57.2898C495.675 56.5434 495.941 55.6658 495.941 54.7681C495.941 53.5644 495.463 52.4099 494.612 51.5587C493.76 50.7075 492.606 50.2293 491.402 50.2293V50.2293ZM491.402 57.4914C490.864 57.4914 490.337 57.3317 489.889 57.0325C489.441 56.7332 489.092 56.3079 488.886 55.8103C488.68 55.3127 488.626 54.7651 488.731 54.2368C488.836 53.7086 489.096 53.2233 489.477 52.8425C489.857 52.4616 490.343 52.2023 490.871 52.0972C491.399 51.9921 491.947 52.046 492.444 52.2522C492.942 52.4583 493.367 52.8073 493.667 53.2552C493.966 53.703 494.126 54.2295 494.126 54.7681C494.126 55.4904 493.839 56.1831 493.328 56.6938C492.817 57.2045 492.125 57.4914 491.402 57.4914V57.4914ZM499.572 67.4768V66.569C499.572 64.8837 498.903 63.2675 497.711 62.0758C496.519 60.8842 494.903 60.2147 493.218 60.2147H489.587C487.901 60.2147 486.285 60.8842 485.094 62.0758C483.902 63.2675 483.232 64.8837 483.232 66.569V67.4768H485.048V66.569C485.048 65.3652 485.526 64.2108 486.377 63.3596C487.229 62.5084 488.383 62.0302 489.587 62.0302H493.218C494.422 62.0302 495.576 62.5084 496.427 63.3596C497.278 64.2108 497.757 65.3652 497.757 66.569V67.4768H499.572Z" fill="#151B31"/>
<path d="M456.299 61.2265V56.8862C456.299 52.9925 453.655 49.7125 450.072 48.726C449.717 47.8328 448.851 47.2034 447.827 47.2034C446.803 47.2034 445.936 47.8328 445.582 48.726C441.999 49.7137 439.354 52.9925 439.354 56.8862V61.2265L437.288 63.2925C437.176 63.4048 437.086 63.5381 437.025 63.685C436.965 63.8318 436.933 63.9893 436.934 64.1483V66.5689C436.934 66.89 437.061 67.1978 437.288 67.4248C437.515 67.6518 437.823 67.7793 438.144 67.7793H457.509C457.83 67.7793 458.138 67.6518 458.365 67.4248C458.592 67.1978 458.72 66.89 458.72 66.5689V64.1483C458.72 63.9893 458.689 63.8318 458.628 63.685C458.567 63.5381 458.478 63.4048 458.365 63.2925L456.299 61.2265ZM456.299 65.3586H439.354V64.6493L441.42 62.5833C441.533 62.4711 441.622 62.3377 441.683 62.1908C441.744 62.044 441.775 61.8865 441.775 61.7276V56.8862C441.775 53.5493 444.49 50.8345 447.827 50.8345C451.164 50.8345 453.878 53.5493 453.878 56.8862V61.7276C453.878 62.0495 454.006 62.3569 454.233 62.5833L456.299 64.6493V65.3586ZM447.827 71.4103C448.576 71.4113 449.308 71.1787 449.919 70.7448C450.53 70.311 450.991 69.6975 451.237 68.9896H444.416C444.662 69.6975 445.123 70.311 445.735 70.7448C446.346 71.1787 447.077 71.4113 447.827 71.4103V71.4103Z" fill="#151B31"/>
<rect x="254.172" y="297.745" width="71.4103" height="16.9448" rx="8.47241" fill="#151B31"/>
<path d="M663.917 12.6656C666.28 15.0288 666.28 18.8609 663.917 21.2241C661.554 23.5874 657.722 23.5874 655.358 21.2241C652.995 18.8609 652.995 15.0288 655.358 12.6656C657.722 10.3023 661.554 10.3023 663.917 12.6656" stroke="#151B31" stroke-width="2.41" stroke-linecap="round" stroke-linejoin="round"/>
<rect x="669.316" y="64.1429" width="375.218" height="244.5" rx="16.9502" fill="white" stroke="#151B31" stroke-width="2.41"/>
<circle cx="858.135" cy="171.869" r="24.2069" fill="#151B31"/>
<path d="M867.817 164.607L854.503 177.921L848.451 171.869" stroke="white" stroke-width="2" stroke-linecap="round" stroke-linejoin="round"/>
<rect x="591.853" y="1.205" width="530.142" height="346.169" rx="16.9502" stroke="#151B31" stroke-width="2.41"/>
<g clip-path="url(#clip2_901_130114)">
<rect x="749.203" y="225.124" width="193.655" height="3.63103" fill="#151B31"/>
<rect x="740.125" y="239.803" width="211.81" height="3.63103" fill="#151B31"/>
</g>
<path d="M639.71 12.6656C642.073 15.0288 642.073 18.8609 639.71 21.2241C637.346 23.5874 633.515 23.5874 631.151 21.2241C628.788 18.8609 628.788 15.0288 631.151 12.6656C633.515 10.3023 637.346 10.3023 639.71 12.6656" stroke="#151B31" stroke-width="2.41" stroke-linecap="round" stroke-linejoin="round"/>
<path d="M616.714 12.6656C619.077 15.0288 619.077 18.8609 616.714 21.2241C614.35 23.5874 610.519 23.5874 608.155 21.2241C605.792 18.8609 605.792 15.0288 608.155 12.6656C610.519 10.3023 614.35 10.3023 616.714 12.6656" stroke="#151B31" stroke-width="2.41" stroke-linecap="round" stroke-linejoin="round"/>
<line x1="591.859" y1="31.4743" x2="1123.2" y2="31.4743" stroke="#151B31" stroke-width="2.41"/>
<circle cx="533.282" cy="201.282" r="2.28202" fill="#151B31"/>
<path d="M592 201L579.95 194.043V207.957L592 201ZM534 202.205H581.155V199.795H534V202.205Z" fill="#151B31"/>
</g>
<defs>
<clipPath id="clip0_901_130114">
<rect width="907" height="351" fill="white"/>
</clipPath>
<clipPath id="clip1_901_130114">
<rect width="249.331" height="62.3477" fill="white" transform="translate(254.172 216.652)"/>
</clipPath>
<clipPath id="clip2_901_130114">
<rect width="249.331" height="18.3102" fill="white" transform="translate(721.365 225.124)"/>
</clipPath>
</defs>
</svg>
