<svg width="117" height="37" viewBox="0 0 117 37" fill="none" xmlns="http://www.w3.org/2000/svg">
<path d="M32.9455 28.479C31.7483 27.8944 30.84 27.1845 30.262 26.4329C29.6015 25.6812 29.3125 25.0548 29.3125 24.5955C29.3125 24.345 29.3951 24.1362 29.6015 24.0109C29.8079 23.8439 29.973 23.8021 30.2208 23.8021H30.84C31.0464 23.8021 31.1703 23.8439 31.2942 23.8856C31.418 23.9691 31.5419 24.0944 31.707 24.3032C32.285 25.1384 33.0281 25.8065 33.8538 26.2658C34.7208 26.7252 35.8767 26.9757 37.3217 26.9757C38.9731 26.9757 40.3354 26.6417 41.3676 26.0153C42.3997 25.3889 42.8951 24.4702 42.8951 23.2593C42.8951 22.5076 42.6887 21.923 42.2758 21.4637C41.863 21.0043 41.2024 20.5867 40.2529 20.2527C39.3446 19.9186 37.9409 19.5428 36.1244 19.0835C33.7299 18.5406 32.0786 17.789 31.2116 16.8285C30.3446 15.8681 29.8905 14.6571 29.8905 13.1956C29.8905 12.1934 30.1795 11.2329 30.7162 10.356C31.2529 9.4791 32.0786 8.72746 33.1932 8.14285C34.2666 7.55824 35.5877 7.26593 37.1153 7.26593C38.7254 7.26593 40.0877 7.55824 41.2024 8.10109C42.3171 8.64394 43.1428 9.31207 43.7208 10.022C44.2575 10.7736 44.5465 11.3582 44.5465 11.8176C44.5465 12.0681 44.4639 12.2769 44.2988 12.4022C44.1336 12.5692 43.9272 12.611 43.6795 12.611H43.0602C42.6887 12.611 42.3997 12.4439 42.1932 12.0681C41.6565 11.2329 41.0373 10.6483 40.3767 10.2307C39.6749 9.81317 38.6428 9.60438 37.1565 9.60438C35.5877 9.60438 34.4318 9.93844 33.6061 10.5648C32.7804 11.2329 32.4088 12.0681 32.4088 13.1538C32.4088 13.8219 32.574 14.3648 32.9042 14.7824C33.2345 15.2 33.8125 15.6175 34.7208 15.9934C35.5877 16.3692 36.9088 16.745 38.6015 17.1208C41.1199 17.7054 42.8538 18.4571 43.8859 19.4175C44.918 20.3779 45.4134 21.6307 45.4134 23.2175C45.4134 24.345 45.1244 25.3472 44.5052 26.2658C43.8859 27.1845 42.9776 27.9361 41.7804 28.479C40.5832 29.0219 39.1382 29.3142 37.4455 29.3142C35.5877 29.3559 34.1428 29.0636 32.9455 28.479Z" fill="white"/>
<path d="M51.3163 26.8087C49.7475 25.0967 48.8805 22.8417 48.6741 19.9604L48.6328 18.3319L48.6741 16.7033C48.8805 13.8637 49.7888 11.6088 51.3163 9.89674C52.8438 8.18466 54.908 7.30774 57.509 7.30774C60.3163 7.30774 62.5044 8.22642 64.0732 10.1055C65.642 11.9846 66.4264 14.5319 66.4264 17.8308V18.4571C66.4264 18.7494 66.3438 18.9582 66.1787 19.1253C66.0136 19.2923 65.7659 19.3758 65.5181 19.3758H51.1512V19.7934C51.1924 21.0879 51.4814 22.2571 52.0181 23.3428C52.5548 24.4285 53.2567 25.3472 54.2062 25.9736C55.1558 26.6417 56.2291 26.9758 57.509 26.9758C58.9952 26.9758 60.1925 26.6835 61.1007 26.0988C62.009 25.5142 62.7108 24.9296 63.0824 24.345C63.3301 24.0109 63.4952 23.8022 63.6191 23.7186C63.7429 23.6351 63.9493 23.5934 64.2796 23.5934H64.9402C65.1879 23.5934 65.3943 23.6769 65.5594 23.8022C65.7246 23.9274 65.8071 24.0945 65.8071 24.345C65.8071 24.9296 65.4356 25.5978 64.7337 26.3912C64.0319 27.1846 63.0411 27.8944 61.7613 28.4791C60.4814 29.0637 59.0778 29.356 57.4677 29.356C54.9493 29.356 52.8851 28.5208 51.3163 26.8087ZM63.9493 17.0791V16.9121C63.9493 14.8242 63.3714 13.1121 62.2154 11.7341C61.0594 10.3561 59.4906 9.68795 57.509 9.68795C55.5273 9.68795 53.9998 10.3561 52.8438 11.7341C51.6879 13.1121 51.1099 14.8242 51.1099 16.9121V17.0791H63.9493Z" fill="white"/>
<path d="M71.1754 28.7296C71.0103 28.5626 70.9277 28.3538 70.9277 28.0615V8.644C70.9277 8.39345 71.0103 8.1429 71.1754 7.97587C71.3406 7.80884 71.547 7.72532 71.836 7.72532H72.5378C72.7855 7.72532 73.0332 7.80884 73.1984 7.97587C73.3635 8.1429 73.4461 8.35169 73.4461 8.644V10.0638C74.1479 9.18685 74.9736 8.47696 75.8819 8.01763C76.7901 7.55829 77.9048 7.30774 79.2259 7.30774C82.2397 7.30774 84.3865 8.60224 85.6663 11.1495C86.3268 9.98025 87.2351 9.06158 88.4323 8.35169C89.6296 7.6418 90.992 7.30774 92.5195 7.30774C94.7489 7.30774 96.5654 8.05938 97.969 9.60443C99.3727 11.1495 100.075 13.3209 100.075 16.1604V28.0197C100.075 28.312 99.992 28.5208 99.8269 28.6878C99.6617 28.8549 99.4553 28.9384 99.1663 28.9384H98.4645C98.1755 28.9384 97.969 28.8549 97.8039 28.6878C97.6388 28.5208 97.5562 28.312 97.5562 28.0197V16.6198C97.5562 14.1561 97.0608 12.3605 96.0287 11.3165C95.0379 10.2726 93.6755 9.7297 92.0654 9.7297C90.6204 9.7297 89.3406 10.2726 88.3085 11.3583C87.2351 12.444 86.6984 14.1978 86.6984 16.6198V28.0615C86.6984 28.3538 86.6158 28.5626 86.4507 28.7296C86.2855 28.8966 86.0791 28.9802 85.7901 28.9802H85.0883C84.7993 28.9802 84.5929 28.8966 84.4277 28.7296C84.2626 28.5626 84.18 28.3538 84.18 28.0615V16.6198C84.18 14.1561 83.6433 12.4022 82.6112 11.3583C81.5791 10.2726 80.258 9.7297 78.6892 9.7297C77.2443 9.7297 75.9644 10.2726 74.9323 11.3583C73.8589 12.444 73.3222 14.1978 73.3222 16.6198V28.1032C73.3222 28.3955 73.2397 28.6043 73.0745 28.7714C72.9094 28.9384 72.703 29.0219 72.414 29.0219H71.836C71.547 28.9802 71.3406 28.8966 71.1754 28.7296Z" fill="white"/>
<path d="M101.476 36.4548C101.311 36.2877 101.229 36.0789 101.229 35.7866V35.202C101.229 34.9097 101.311 34.7009 101.476 34.5339C101.641 34.3668 101.848 34.2833 102.137 34.2833H102.302C103.788 34.2833 104.738 33.9075 105.233 33.1559C105.687 32.4042 105.935 31.2768 105.935 29.8152V8.64391C105.935 8.39336 106.018 8.14281 106.183 7.97578C106.348 7.80875 106.554 7.72523 106.843 7.72523H107.545C107.793 7.72523 108.04 7.80875 108.206 7.97578C108.371 8.14281 108.453 8.3516 108.453 8.64391V29.857C108.453 31.9866 107.999 33.6987 107.132 34.9097C106.265 36.1207 104.655 36.7053 102.384 36.7053H102.219C101.848 36.7053 101.641 36.6218 101.476 36.4548ZM105.687 3.13185C105.522 2.96482 105.44 2.75603 105.44 2.46372V0.918676C105.44 0.668128 105.522 0.41758 105.687 0.250548C105.852 0.083516 106.059 0 106.348 0H107.875C108.123 0 108.371 0.083516 108.536 0.250548C108.701 0.41758 108.784 0.668128 108.784 0.918676V2.50548C108.784 2.79779 108.701 3.00658 108.536 3.17361C108.371 3.34064 108.123 3.42416 107.875 3.42416H106.348C106.059 3.3824 105.852 3.29888 105.687 3.13185Z" fill="white"/>
<path d="M113.904 3.13185C113.739 2.96482 113.656 2.75603 113.656 2.46372V0.918676C113.656 0.668128 113.739 0.41758 113.904 0.250548C114.069 0.083516 114.276 0 114.565 0H116.092C116.381 0 116.587 0.083516 116.753 0.250548C116.918 0.41758 117 0.668128 117 0.918676V2.50548C117 2.79779 116.918 3.00658 116.753 3.17361C116.587 3.34064 116.34 3.42416 116.092 3.42416H114.565C114.317 3.3824 114.069 3.29888 113.904 3.13185ZM114.358 28.7295C114.193 28.5625 114.11 28.3537 114.11 28.0614V8.64391C114.11 8.39336 114.193 8.14281 114.358 7.97578C114.523 7.80875 114.73 7.72523 115.019 7.72523H115.72C115.968 7.72523 116.216 7.80875 116.381 7.97578C116.546 8.14281 116.629 8.3516 116.629 8.64391V28.0614C116.629 28.3537 116.546 28.5625 116.381 28.7295C116.216 28.8966 116.009 28.9801 115.72 28.9801H115.019C114.73 28.9801 114.523 28.8966 114.358 28.7295Z" fill="white"/>
<path d="M14.6129 28.9801L11.6404 23.4263L8.66797 28.9801H14.6129Z" fill="white"/>
<path d="M4.41744 28.98L11.6422 15.4922L18.867 28.98H23.2844L11.6422 7.26587L0 28.98H4.41744Z" fill="white"/>
</svg>
