<svg width="207" height="31" viewBox="0 0 207 31" fill="none" xmlns="http://www.w3.org/2000/svg">
<path d="M13.9569 29.6272C16.0925 29.6272 17.8239 27.8958 17.8239 25.7601C17.8239 23.6244 16.0925 21.8931 13.9569 21.8931C11.8212 21.8931 10.0898 23.6244 10.0898 25.7601C10.0898 27.8958 11.8212 29.6272 13.9569 29.6272Z" fill="white"/>
<path d="M23.3182 24.2174C25.4539 24.2174 27.1852 22.486 27.1852 20.3504C27.1852 18.2147 25.4539 16.4833 23.3182 16.4833C21.1825 16.4833 19.4512 18.2147 19.4512 20.3504C19.4512 22.486 21.1825 24.2174 23.3182 24.2174Z" fill="white"/>
<path d="M23.3182 13.4068C25.4539 13.4068 27.1852 11.6755 27.1852 9.5398C27.1852 7.40411 25.4539 5.67279 23.3182 5.67279C21.1825 5.67279 19.4512 7.40411 19.4512 9.5398C19.4512 11.6755 21.1825 13.4068 23.3182 13.4068Z" fill="white"/>
<path d="M13.9569 7.99812C16.0925 7.99812 17.8239 6.2668 17.8239 4.13111C17.8239 1.99542 16.0925 0.264099 13.9569 0.264099C11.8212 0.264099 10.0898 1.99542 10.0898 4.13111C10.0898 6.2668 11.8212 7.99812 13.9569 7.99812Z" fill="white"/>
<path d="M4.59162 13.4068C6.72731 13.4068 8.45863 11.6755 8.45863 9.5398C8.45863 7.40411 6.72731 5.67279 4.59162 5.67279C2.45593 5.67279 0.724609 7.40411 0.724609 9.5398C0.724609 11.6755 2.45593 13.4068 4.59162 13.4068Z" fill="white"/>
<path d="M4.59162 24.2174C6.72731 24.2174 8.45863 22.486 8.45863 20.3504C8.45863 18.2147 6.72731 16.4833 4.59162 16.4833C2.45593 16.4833 0.724609 18.2147 0.724609 20.3504C0.724609 22.486 2.45593 24.2174 4.59162 24.2174Z" fill="white"/>
<path d="M13.9569 18.8078C16.0925 18.8078 17.8239 17.0764 17.8239 14.9407C17.8239 12.805 16.0925 11.0737 13.9569 11.0737C11.8212 11.0737 10.0898 12.805 10.0898 14.9407C10.0898 17.0764 11.8212 18.8078 13.9569 18.8078Z" fill="white"/>
<path d="M37.5938 27.4723V2.42582L41.2438 0.875916V12.9419L40.7323 13.1589C41.1964 11.8267 42.0942 10.6887 43.2819 9.92736C44.4916 9.1812 45.8906 8.79917 47.3117 8.82693C51.6772 8.82693 53.8574 11.2706 53.8522 16.158V27.4723H50.2022V16.2742C50.3065 15.0549 49.9742 13.8382 49.2645 12.8412C48.8922 12.4588 48.4401 12.1633 47.9405 11.9758C47.4408 11.7882 46.9059 11.7133 46.374 11.7562C45.6799 11.7256 44.9871 11.8415 44.3408 12.0966C43.6946 12.3516 43.1093 12.74 42.6232 13.2364C42.1475 13.7586 41.78 14.3699 41.5419 15.035C41.3038 15.7 41.1998 16.4057 41.236 17.1112V27.4723H37.5938Z" fill="white"/>
<path d="M64.4365 27.7281C62.2511 27.7281 60.6031 27.1185 59.4923 25.8992C58.3815 24.68 57.8262 22.8562 57.8262 20.4281V9.29974H61.4762V20.3893C61.3823 21.5667 61.7091 22.7392 62.3984 23.6984C62.7594 24.0814 63.2013 24.379 63.6921 24.5694C64.1828 24.7598 64.7098 24.8382 65.2347 24.7988C65.896 24.8255 66.5555 24.7108 67.1689 24.4622C67.7823 24.2136 68.3356 23.837 68.7917 23.3574C69.729 22.3089 70.2161 20.9338 70.1479 19.5291V9.29974H73.7979V27.5111H70.2564V23.6364L70.6904 23.4891C70.2637 24.7915 69.4123 25.9131 68.2725 26.6742C67.1255 27.3955 65.7911 27.7621 64.4365 27.7281Z" fill="white"/>
<path d="M77.9922 27.4723V2.42582L81.6422 0.875916V13.7789L81.247 13.3449C81.6013 11.9952 82.4257 10.8163 83.5718 10.0204C84.78 9.20377 86.2137 8.7864 87.6713 8.82692C89.1635 8.79634 90.6328 9.19729 91.9026 9.9816C93.1309 10.7833 94.1128 11.91 94.7389 13.2364C95.457 14.7864 95.8096 16.4806 95.7696 18.1884C95.8063 19.9233 95.4542 21.6445 94.7389 23.2255C94.1173 24.5805 93.1261 25.7328 91.8793 26.5501C90.622 27.3457 89.159 27.7552 87.6713 27.728C86.2162 27.7664 84.7846 27.3551 83.5718 26.5501C82.4202 25.7528 81.5948 24.5669 81.247 23.21L81.6422 22.7063V27.4723H77.9922ZM86.8499 24.8374C87.5782 24.8678 88.3035 24.7265 88.9671 24.425C89.6308 24.1235 90.2142 23.6701 90.6704 23.1015C91.669 21.6655 92.1524 19.9339 92.0421 18.1884C92.1493 16.4913 91.6645 14.8097 90.6704 13.4301C90.2071 12.8718 89.6196 12.4296 88.9549 12.139C88.2901 11.8483 87.5666 11.7172 86.8421 11.7562C86.1063 11.7099 85.37 11.8414 84.6956 12.1394C84.0212 12.4375 83.4285 12.8935 82.9674 13.4689C81.9984 14.8709 81.5264 16.5568 81.6267 18.2581C81.5144 19.9897 81.9865 21.7089 82.9674 23.1403C83.4338 23.7105 84.0291 24.1618 84.7041 24.4568C85.3791 24.7519 86.1146 24.8824 86.8499 24.8374Z" fill="white"/>
<path d="M105.967 27.7284C104.472 27.7614 102.999 27.3661 101.721 26.5892C100.48 25.8058 99.499 24.6735 98.8998 23.3344C98.2041 21.7729 97.8652 20.0759 97.9079 18.367C97.8685 16.6442 98.2126 14.9342 98.9153 13.3608C99.5253 12.0013 100.509 10.843 101.752 10.0207C103.007 9.21228 104.475 8.79674 105.967 8.82732C107.434 8.78415 108.879 9.19264 110.106 9.9975C111.257 10.7982 112.082 11.9865 112.43 13.3453L111.997 13.632V9.30004H115.616V27.5114H111.997V23.0244L112.43 23.2104C112.081 24.5664 111.256 25.7517 110.106 26.5505C108.879 27.3576 107.435 27.7688 105.967 27.7284ZM106.835 24.8378C107.559 24.8716 108.281 24.7357 108.943 24.4411C109.605 24.1464 110.189 23.7011 110.648 23.1407C111.63 21.7243 112.106 20.0175 111.997 18.2972C112.108 16.5767 111.633 14.8692 110.648 13.4538C110.189 12.8934 109.605 12.4481 108.943 12.1534C108.281 11.8587 107.559 11.7229 106.835 11.7566C106.097 11.7194 105.36 11.8589 104.686 12.1635C104.012 12.4681 103.421 12.929 102.961 13.508C101.959 14.9227 101.47 16.6367 101.573 18.367C101.461 20.0765 101.952 21.7712 102.961 23.1562C103.435 23.7141 104.031 24.1557 104.703 24.4473C105.374 24.7388 106.104 24.8724 106.835 24.8378Z" fill="white"/>
<path d="M125.224 27.4724L117.42 9.29974H121.217L127.417 24.5198H126.471L132.779 9.29974H136.43L128.517 27.4724H125.224Z" fill="white"/>
<path d="M145.794 27.7276C144.136 27.7733 142.496 27.3746 141.044 26.5729C139.714 25.8081 138.637 24.6714 137.944 23.3026C137.186 21.7312 136.814 20.0017 136.859 18.2577C136.821 16.5317 137.193 14.8213 137.944 13.267C138.632 11.8906 139.71 10.7477 141.044 9.98121C142.494 9.22278 144.107 8.82666 145.744 8.82666C147.381 8.82666 148.993 9.22278 150.444 9.98121C151.773 10.7538 152.85 11.8951 153.544 13.267C154.303 14.8192 154.68 16.5302 154.644 18.2577C154.689 20.0034 154.311 21.7341 153.544 23.3026C152.845 24.6671 151.769 25.8021 150.444 26.5729C149.022 27.3594 147.419 27.7576 145.794 27.7276ZM145.794 24.8371C146.516 24.8745 147.236 24.7435 147.897 24.4543C148.559 24.1651 149.145 23.7257 149.607 23.1709C150.506 22.0627 150.963 20.4276 150.963 18.2577C151.074 16.5409 150.596 14.8377 149.607 13.4297C149.145 12.8736 148.56 12.4327 147.899 12.1421C147.237 11.8516 146.516 11.7193 145.794 11.7558C145.063 11.7162 144.332 11.8467 143.66 12.1372C142.988 12.4276 142.392 12.8701 141.92 13.4297C140.904 14.8262 140.41 16.5347 140.525 18.2577C140.525 20.4276 140.982 22.0627 141.881 23.1709C142.358 23.7346 142.96 24.1788 143.64 24.4681C144.319 24.7574 145.057 24.8838 145.794 24.8371Z" fill="white"/>
<path d="M165.737 27.7285C164.079 27.7704 162.44 27.372 160.987 26.5738C159.658 25.8153 158.58 24.6837 157.887 23.319C157.132 21.7797 156.76 20.081 156.802 18.3671C156.762 16.6316 157.148 14.9128 157.926 13.3609C158.633 11.9643 159.732 10.8038 161.088 10.0209C162.557 9.19566 164.223 8.78329 165.908 8.82742C167.15 8.82397 168.384 9.03096 169.558 9.43964C170.64 9.79217 171.629 10.3857 172.448 11.1755L171.332 13.8104C170.566 13.1677 169.706 12.6452 168.783 12.2605C167.951 11.923 167.061 11.7493 166.163 11.749C165.396 11.7108 164.63 11.8432 163.919 12.1367C163.209 12.4301 162.573 12.8773 162.056 13.4461C160.979 14.8219 160.447 16.5461 160.561 18.2896C160.443 20.0215 160.97 21.7357 162.041 23.102C162.562 23.6714 163.202 24.1187 163.916 24.412C164.63 24.7054 165.4 24.8376 166.171 24.7992C167.063 24.7934 167.946 24.6227 168.775 24.2955C169.703 23.9096 170.567 23.3872 171.34 22.7456L172.456 25.3804C171.61 26.1727 170.599 26.7681 169.496 27.124C168.285 27.5307 167.015 27.7349 165.737 27.7285Z" fill="white"/>
<path d="M181.82 27.7284C180.325 27.7605 178.852 27.3653 177.574 26.5892C176.335 25.8037 175.354 24.672 174.753 23.3344C174.061 21.7716 173.722 20.0755 173.761 18.3669C173.721 16.6433 174.068 14.9325 174.776 13.3607C175.386 12.0012 176.37 10.8429 177.612 10.0207C178.865 9.21328 180.33 8.79777 181.82 8.82727C183.298 8.77769 184.754 9.18645 185.99 9.99745C187.141 10.7987 187.966 11.9867 188.315 13.3452L187.881 13.632V9.3H191.492V27.5114H187.881V23.0244L188.315 23.2491C187.964 24.6045 187.139 25.7894 185.99 26.5892C184.75 27.3888 183.294 27.7866 181.82 27.7284ZM182.688 24.8378C183.412 24.8716 184.134 24.7357 184.796 24.441C185.458 24.1464 186.042 23.7011 186.501 23.1406C187.486 21.7252 187.964 20.0184 187.857 18.2972C187.967 16.5757 187.489 14.8681 186.501 13.4537C186.042 12.8933 185.458 12.448 184.796 12.1534C184.134 11.8587 183.412 11.7228 182.688 11.7566C181.95 11.7193 181.213 11.8588 180.539 12.1634C179.865 12.468 179.274 12.929 178.814 13.508C177.815 14.9243 177.326 16.637 177.427 18.3669C177.318 20.0761 177.808 21.7697 178.814 23.1561C179.288 23.714 179.884 24.1557 180.556 24.4472C181.227 24.7387 181.957 24.8724 182.688 24.8378Z" fill="white"/>
<path d="M193.277 12.0739V9.29956H205.491V12.1126L193.277 12.0739ZM205.46 24.3646V27.325C205.036 27.4684 204.6 27.5722 204.158 27.6349C203.69 27.6991 203.219 27.7302 202.747 27.7279C201.954 27.7762 201.16 27.6638 200.411 27.3975C199.663 27.1312 198.976 26.7164 198.392 26.178C197.359 25.1448 196.842 23.5948 196.842 21.5283V4.70409L200.492 3.44092V21.2183C200.455 21.9356 200.593 22.6513 200.895 23.3029C201.135 23.765 201.522 24.1334 201.996 24.3491C202.486 24.5537 203.014 24.6565 203.545 24.6514C203.859 24.653 204.173 24.6297 204.483 24.5816C204.812 24.5271 205.138 24.4546 205.46 24.3646Z" fill="white"/>
</svg>
